<svg xmlns="http://www.w3.org/2000/svg" viewBox="0 0 900 160" width="900" height="160">
  <defs>
    <linearGradient id="bg" x1="0%" y1="0%" x2="100%" y2="100%">
      <stop offset="0%" style="stop-color:#0a0020"/>
      <stop offset="50%" style="stop-color:#0d0035"/>
      <stop offset="100%" style="stop-color:#050015"/>
    </linearGradient>
    <linearGradient id="textgrad" x1="0%" y1="0%" x2="100%" y2="0%">
      <stop offset="0%" style="stop-color:#ffffff"/>
      <stop offset="40%" style="stop-color:#a78bfa"/>
      <stop offset="100%" style="stop-color:#38bdf8"/>
    </linearGradient>
  </defs>

  <rect width="900" height="160" fill="url(#bg)" rx="12"/>

  <!-- Dots top left -->
  <circle cx="30" cy="25" r="3.5" fill="#a78bfa" opacity="0.2"/>
  <circle cx="50" cy="25" r="3.5" fill="#38bdf8" opacity="0.15"/>
  <circle cx="70" cy="25" r="3.5" fill="#a78bfa" opacity="0.12"/>
  <circle cx="30" cy="45" r="3.5" fill="#38bdf8" opacity="0.15"/>
  <circle cx="50" cy="45" r="3.5" fill="#ffffff" opacity="0.1"/>
  <circle cx="70" cy="45" r="3.5" fill="#38bdf8" opacity="0.12"/>
  <circle cx="30" cy="65" r="3.5" fill="#a78bfa" opacity="0.12"/>
  <circle cx="50" cy="65" r="3.5" fill="#a78bfa" opacity="0.1"/>
  <circle cx="70" cy="65" r="3.5" fill="#ffffff" opacity="0.08"/>

  <!-- Dots top right -->
  <circle cx="830" cy="25" r="3.5" fill="#38bdf8" opacity="0.2"/>
  <circle cx="850" cy="25" r="3.5" fill="#a78bfa" opacity="0.15"/>
  <circle cx="870" cy="25" r="3.5" fill="#38bdf8" opacity="0.12"/>
  <circle cx="830" cy="45" r="3.5" fill="#a78bfa" opacity="0.15"/>
  <circle cx="850" cy="45" r="3.5" fill="#ffffff" opacity="0.1"/>
  <circle cx="870" cy="45" r="3.5" fill="#a78bfa" opacity="0.12"/>
  <circle cx="830" cy="65" r="3.5" fill="#38bdf8" opacity="0.12"/>
  <circle cx="850" cy="65" r="3.5" fill="#38bdf8" opacity="0.1"/>
  <circle cx="870" cy="65" r="3.5" fill="#ffffff" opacity="0.08"/>

  <!-- Dots bottom -->
  <circle cx="30" cy="110" r="3.5" fill="#a78bfa" opacity="0.12"/>
  <circle cx="50" cy="110" r="3.5" fill="#38bdf8" opacity="0.1"/>
  <circle cx="830" cy="110" r="3.5" fill="#38bdf8" opacity="0.12"/>
  <circle cx="850" cy="110" r="3.5" fill="#a78bfa" opacity="0.1"/>

  <!-- Glow -->
  <rect x="80" y="15" width="740" height="115" rx="8" fill="#4c1d95" opacity="0.1"/>

  <!-- ASCII art TECNOW -->
  <text font-family="'Courier New', Courier, monospace" font-size="9" fill="url(#textgrad)" x="450" text-anchor="middle" opacity="0.92" xml:space="preserve">
    <tspan x="450" dy="38">‚Ėą‚Ėą‚Ėą‚Ėą‚Ėą‚Ėą‚Ėą‚Ėą‚ēó‚Ėą‚Ėą‚Ėą‚Ėą‚Ėą‚Ėą‚Ėą‚ēó ‚Ėą‚Ėą‚Ėą‚Ėą‚Ėą‚Ėą‚ēó‚Ėą‚Ėą‚Ėą‚ēó   ‚Ėą‚Ėą‚ēó ‚Ėą‚Ėą‚Ėą‚Ėą‚Ėą‚Ėą‚ēó ‚Ėą‚Ėą‚ēó    ‚Ėą‚Ėą‚ēó</tspan>
    <tspan x="450" dy="13">‚ēö‚ēź‚ēź‚Ėą‚Ėą‚ēĒ‚ēź‚ēź‚ēĚ‚Ėą‚Ėą‚ēĒ‚ēź‚ēź‚ēź‚ēź‚ēĚ‚Ėą‚Ėą‚ēĒ‚ēź‚ēź‚ēź‚ēź‚ēĚ‚Ėą‚Ėą‚Ėą‚Ėą‚ēó  ‚Ėą‚Ėą‚ēĎ‚Ėą‚Ėą‚ēĒ‚ēź‚ēź‚ēź‚Ėą‚Ėą‚ēó‚Ėą‚Ėą‚ēĎ    ‚Ėą‚Ėą‚ēĎ</tspan>
    <tspan x="450" dy="13">   ‚Ėą‚Ėą‚ēĎ   ‚Ėą‚Ėą‚Ėą‚Ėą‚Ėą‚ēó  ‚Ėą‚Ėą‚ēĎ     ‚Ėą‚Ėą‚ēĒ‚Ėą‚Ėą‚ēó ‚Ėą‚Ėą‚ēĎ‚Ėą‚Ėą‚ēĎ   ‚Ėą‚Ėą‚ēĎ‚Ėą‚Ėą‚ēĎ ‚Ėą‚ēó ‚Ėą‚Ėą‚ēĎ</tspan>
    <tspan x="450" dy="13">   ‚Ėą‚Ėą‚ēĎ   ‚Ėą‚Ėą‚ēĒ‚ēź‚ēź‚ēĚ  ‚Ėą‚Ėą‚ēĎ     ‚Ėą‚Ėą‚ēĎ‚ēö‚Ėą‚Ėą‚Ėą‚Ėą‚ēĎ‚Ėą‚Ėą‚ēĎ   ‚Ėą‚Ėą‚ēĎ‚Ėą‚Ėą‚ēĎ‚Ėą‚Ėą‚Ėą‚ēó‚Ėą‚Ėą‚ēĎ</tspan>
    <tspan x="450" dy="13">   ‚Ėą‚Ėą‚ēĎ   ‚Ėą‚Ėą‚Ėą‚Ėą‚Ėą‚Ėą‚Ėą‚ēó‚ēö‚Ėą‚Ėą‚Ėą‚Ėą‚Ėą‚Ėą‚ēó‚Ėą‚Ėą‚ēĎ ‚ēö‚Ėą‚Ėą‚Ėą‚ēĎ‚ēö‚Ėą‚Ėą‚Ėą‚Ėą‚Ėą‚Ėą‚ēĒ‚ēĚ‚ēö‚Ėą‚Ėą‚Ėą‚ēĒ‚Ėą‚Ėą‚Ėą‚ēĒ‚ēĚ</tspan>
    <tspan x="450" dy="13">   ‚ēö‚ēź‚ēĚ   ‚ēö‚ēź‚ēź‚ēź‚ēź‚ēź‚ēź‚ēĚ ‚ēö‚ēź‚ēź‚ēź‚ēź‚ēź‚ēĚ‚ēö‚ēź‚ēĚ  ‚ēö‚ēź‚ēź‚ēĚ ‚ēö‚ēź‚ēź‚ēź‚ēź‚ēź‚ēĚ  ‚ēö‚ēź‚ēź‚ēĚ‚ēö‚ēź‚ēź‚ēĚ</tspan>
  </text>

  <!-- Subtitle -->
  <text font-family="'Courier New', Courier, monospace" font-size="10" fill="#38bdf8" x="450" y="150" text-anchor="middle" opacity="0.6" letter-spacing="3">Tecnol√≥gico Superior de Jalisco ¬∑ Foro Estudiantil</text>

  <!-- Border -->
  <rect width="898" height="158" fill="none" stroke="#4c1d95" stroke-width="1" rx="12" opacity="0.6" x="1" y="1"/>
  <rect width="894" height="154" fill="none" stroke="#38bdf8" stroke-width="0.5" rx="11" opacity="0.2" x="3" y="3"/>
</svg>
